<svg xmlns="http://www.w3.org/2000/svg" viewBox="0 0 80 80" width="16px" height="16px"><path fill="#b6c9d6" d="M6.998,77.5c-1.202,0-2.331-0.468-3.181-1.317c-1.753-1.753-1.753-4.607,0-6.36l36.828-35.11 l4.656,4.661L10.17,76.191C9.329,77.032,8.199,77.5,6.998,77.5z"/><path fill="#788b9c" d="M40.636,35.411l3.966,3.97L9.825,75.829C9.069,76.584,8.066,77,6.998,77 c-1.068,0-2.072-0.416-2.827-1.171c-1.559-1.559-1.559-4.095-0.017-5.637L40.636,35.411 M40.654,34.013L3.464,69.469 c-1.952,1.952-1.951,5.116,0,7.068C4.44,77.512,5.719,78,6.998,78c1.279,0,2.558-0.488,3.534-1.464L46,39.366L40.654,34.013 L40.654,34.013z"/><g><path fill="#d1edff" d="M52,53.5c-14.061,0-25.5-11.439-25.5-25.5S37.939,2.5,52,2.5S77.5,13.939,77.5,28 S66.061,53.5,52,53.5z"/><path fill="#788b9c" d="M52,3c13.785,0,25,11.215,25,25S65.785,53,52,53S27,41.785,27,28S38.215,3,52,3 M52,2 C37.641,2,26,13.641,26,28s11.641,26,26,26s26-11.641,26-26S66.359,2,52,2L52,2z"/></g></svg>